<svg width="55" height="56" viewBox="0 0 55 56" fill="none" xmlns="http://www.w3.org/2000/svg">
<path d="M53.4853 15.9806L48.5329 20.9329C48.028 21.4378 47.2116 21.4378 46.7066 20.9329L34.7823 9.00863C34.2774 8.50373 34.2774 7.68729 34.7823 7.18239L39.7346 2.23004C41.7435 0.221171 45.0093 0.221171 47.0289 2.23004L53.4853 8.68635C55.5049 10.6952 55.5049 13.961 53.4853 15.9806ZM30.5282 11.4365L2.31787 39.6466L0.0404252 52.6988C-0.271113 54.4606 1.26509 55.9861 3.02689 55.6853L16.0793 53.3971L44.2895 25.187C44.7944 24.6821 44.7944 23.8657 44.2895 23.3608L32.3652 11.4365C31.8495 10.9316 31.0331 10.9316 30.5282 11.4365ZM13.3291 37.2295C12.7383 36.6386 12.7383 35.6933 13.3291 35.1024L29.8729 18.5588C30.4637 17.968 31.4091 17.968 31.9999 18.5588C32.5908 19.1497 32.5908 20.095 31.9999 20.6859L15.4562 37.2295C14.8653 37.8203 13.92 37.8203 13.3291 37.2295ZM9.45102 46.264H14.6075V50.1636L7.67847 51.3775L4.3375 48.0365L5.55142 41.1076H9.45102V46.264Z" fill="#8F8F8F"/>
</svg>
