<svg width="55" height="43" viewBox="0 0 55 43" fill="none" xmlns="http://www.w3.org/2000/svg">
<path d="M26.7708 11.1112L9.16739 25.63V41.3C9.16739 41.7057 9.32834 42.0948 9.61483 42.3817C9.90132 42.6686 10.2899 42.8298 10.6951 42.8298L21.3944 42.8021C21.7982 42.8 22.1848 42.638 22.4697 42.3513C22.7545 42.0646 22.9144 41.6767 22.9144 41.2722V32.1211C22.9144 31.7154 23.0754 31.3263 23.3619 31.0394C23.6484 30.7525 24.0369 30.5913 24.4421 30.5913H30.5527C30.9579 30.5913 31.3464 30.7525 31.6329 31.0394C31.9194 31.3263 32.0804 31.7154 32.0804 32.1211V41.2656C32.0798 41.4669 32.1188 41.6663 32.1953 41.8525C32.2718 42.0386 32.3842 42.2078 32.5261 42.3504C32.6681 42.4929 32.8367 42.6061 33.0223 42.6832C33.208 42.7604 33.407 42.8001 33.608 42.8001L44.3036 42.8298C44.7087 42.8298 45.0973 42.6686 45.3838 42.3817C45.6703 42.0948 45.8312 41.7057 45.8312 41.3V25.6195L28.2316 11.1112C28.0247 10.9442 27.767 10.8531 27.5012 10.8531C27.2355 10.8531 26.9777 10.9442 26.7708 11.1112ZM54.5771 20.9794L46.5951 14.3907V1.14735C46.5951 0.843057 46.4743 0.551223 46.2595 0.336053C46.0446 0.120882 45.7532 0 45.4493 0H40.1025C39.7986 0 39.5072 0.120882 39.2923 0.336053C39.0775 0.551223 38.9568 0.843057 38.9568 1.14735V8.0898L30.4085 1.04696C29.5882 0.370958 28.5588 0.00135134 27.4964 0.00135134C26.4341 0.00135134 25.4047 0.370958 24.5843 1.04696L0.415809 20.9794C0.29979 21.0754 0.203803 21.1934 0.133332 21.3266C0.0628612 21.4598 0.0192874 21.6055 0.00510062 21.7556C-0.00908619 21.9057 0.00639198 22.0571 0.0506507 22.2011C0.0949095 22.3452 0.167081 22.4791 0.263043 22.5952L2.69775 25.5592C2.79345 25.6758 2.91116 25.7722 3.04415 25.8432C3.17713 25.9141 3.32277 25.958 3.47274 25.9725C3.62271 25.987 3.77406 25.9717 3.91812 25.9275C4.06218 25.8834 4.19613 25.8112 4.3123 25.7151L26.7708 7.19104C26.9777 7.02403 27.2355 6.93296 27.5012 6.93296C27.767 6.93296 28.0247 7.02403 28.2316 7.19104L50.6911 25.7151C50.8071 25.8112 50.9408 25.8834 51.0847 25.9278C51.2285 25.9721 51.3797 25.9876 51.5295 25.9734C51.6794 25.9592 51.825 25.9155 51.958 25.845C52.091 25.7744 52.2088 25.6783 52.3047 25.5621L54.7394 22.5981C54.8353 22.4813 54.9071 22.3467 54.9509 22.202C54.9946 22.0573 55.0093 21.9054 54.9943 21.7549C54.9792 21.6045 54.9346 21.4586 54.863 21.3255C54.7914 21.1924 54.6942 21.0747 54.5771 20.9794Z" fill="#8F8F8F"/>
</svg>
