<svg width="55" height="56" viewBox="0 0 55 56" fill="none" xmlns="http://www.w3.org/2000/svg">
<path d="M37.8118 11.0359C37.8118 5.34038 33.1949 0.723389 27.4995 0.723389C21.8041 0.723389 17.1872 5.34038 17.1872 11.0359C17.1872 16.7314 21.8041 21.3484 27.4995 21.3484C33.1949 21.3484 37.8118 16.7314 37.8118 11.0359ZM25.0922 26.6228C18.719 22.7212 8.39593 21.6492 3.20111 21.3538C1.45554 21.2549 0 22.5848 0 24.2638V48.1974C0 49.7368 1.245 51.0205 2.84555 51.1032C7.5355 51.3492 17.0239 52.2504 23.5819 55.5537C24.5884 56.0607 25.7818 55.37 25.7818 54.2786V27.8539C25.7807 27.3522 25.5326 26.8924 25.0922 26.6228ZM51.7978 21.3538C46.6041 21.6481 36.28 22.7212 29.9078 26.6228C29.4674 26.8924 29.2193 27.3705 29.2193 27.8721V54.2753C29.2193 55.37 30.4159 56.0618 31.4257 55.5537C37.9826 52.2537 47.4656 51.3524 52.1544 51.1064C53.755 51.0226 55 49.7389 55 48.1996V24.2638C54.9989 22.5848 53.5434 21.2549 51.7978 21.3538Z" fill="#8F8F8F"/>
</svg>
