<svg width="55" height="49" viewBox="0 0 55 49" fill="none" xmlns="http://www.w3.org/2000/svg">
<path d="M22.4343 23.8819C23.2336 23.8819 23.8816 23.2338 23.8816 22.4345C23.8816 21.6351 23.2336 20.9871 22.4343 20.9871C21.6349 20.9871 20.9869 21.6351 20.9869 22.4345C20.9869 23.2338 21.6349 23.8819 22.4343 23.8819Z" fill="#8F8F8F"/>
<path d="M32.5658 23.8819C33.3652 23.8819 34.0132 23.2338 34.0132 22.4345C34.0132 21.6351 33.3652 20.9871 32.5658 20.9871C31.7664 20.9871 31.1184 21.6351 31.1184 22.4345C31.1184 23.2338 31.7664 23.8819 32.5658 23.8819Z" fill="#8F8F8F"/>
<path d="M32.5658 28.2239C32.23 30.6979 30.1029 32.566 27.5001 32.566C24.8972 32.566 22.7701 30.6474 22.4343 28.2239H32.5658Z" fill="#8F8F8F"/>
<path d="M51.6306 37.2281C50.9987 38.7179 47.9182 38.9008 47.023 40.2599C46.1278 41.619 47.102 44.494 45.9698 45.6179C45.101 46.4804 43.2316 46.1406 41.7835 46.2975C41.3793 46.3467 40.9693 46.2851 40.5979 46.1192C40.2265 45.9533 39.9081 45.6895 39.6772 45.3565L35.8068 39.6065C35.6921 39.4389 35.6472 39.2336 35.6815 39.0338C35.7159 38.8341 35.8268 38.6552 35.9911 38.5349C38.381 36.7831 40.1543 34.3285 41.0592 31.5195C41.9642 28.7106 41.9548 25.69 41.0325 22.8866C40.1101 20.0833 38.3217 17.6395 35.921 15.9023C33.5203 14.1652 30.6293 13.2228 27.6585 13.209C24.6877 13.1952 21.788 14.1107 19.3711 15.8256C16.9541 17.5404 15.1427 19.9674 14.194 22.7621C13.2453 25.5568 13.2075 28.5772 14.086 31.3944C14.9645 34.2116 16.7146 36.6826 19.0878 38.4565C19.2521 38.5768 19.3631 38.7556 19.3974 38.9554C19.4318 39.1552 19.3869 39.3605 19.2721 39.5281L15.3491 45.3565C15.1201 45.6915 14.8019 45.9568 14.4301 46.1229C14.0582 46.289 13.6472 46.3494 13.2428 46.2975C11.7947 46.1406 9.92532 46.4804 9.05646 45.6179C7.92431 44.494 8.89849 41.5929 8.0033 40.2338C7.10811 38.8747 4.02761 38.7179 3.39571 37.2019C2.76381 35.686 4.79115 33.4383 4.50153 31.8439C4.21191 30.2496 1.44736 28.9428 1.44736 27.2962C1.44736 25.6496 4.21191 24.2905 4.50153 22.7484C4.81748 21.1541 2.79014 18.8541 3.39571 17.3904C4.00128 15.9268 7.10811 15.7177 8.0033 14.3586C8.89849 12.9995 7.92431 10.1245 9.05646 9.00061C10.1886 7.87673 13.1111 8.84379 14.4803 7.95514C15.8494 7.0665 16.0073 4.00853 17.5344 3.38125C19.0615 2.75397 21.3258 4.76648 22.9319 4.47898C24.538 4.19148 25.8544 1.44714 27.5131 1.44714C29.1719 1.44714 30.541 4.19148 32.0944 4.47898C33.7005 4.79262 36.0174 2.78011 37.4919 3.38125C38.9663 3.98239 39.1769 7.0665 40.546 7.95514C41.9152 8.84379 44.8114 7.87673 45.9435 9.00061C47.0757 10.1245 46.1015 13.0256 46.9967 14.3847C47.8919 15.7438 50.9724 15.9007 51.6043 17.4166C52.2362 18.9325 50.2088 21.1802 50.4984 22.7746C50.7881 24.3689 53.5526 25.6757 53.5526 27.3223C53.5526 28.9689 50.7881 30.328 50.4984 31.8701C50.2088 33.4644 52.2362 35.7383 51.6306 37.2281Z" fill="#8F8F8F"/>
</svg>
