<svg width="55" height="40" viewBox="0 0 55 40" fill="none" xmlns="http://www.w3.org/2000/svg">
<path d="M8.25 17.2506C11.2836 17.2506 13.75 14.7801 13.75 11.7416C13.75 8.703 11.2836 6.23254 8.25 6.23254C5.21641 6.23254 2.75 8.703 2.75 11.7416C2.75 14.7801 5.21641 17.2506 8.25 17.2506ZM46.75 17.2506C49.7836 17.2506 52.25 14.7801 52.25 11.7416C52.25 8.703 49.7836 6.23254 46.75 6.23254C43.7164 6.23254 41.25 8.703 41.25 11.7416C41.25 14.7801 43.7164 17.2506 46.75 17.2506ZM49.5 20.0051H44C42.4875 20.0051 41.1211 20.6163 40.1242 21.6062C43.5875 23.5085 46.0453 26.9431 46.5781 31.0232H52.25C53.7711 31.0232 55 29.7923 55 28.2687V25.5141C55 22.4756 52.5336 20.0051 49.5 20.0051ZM27.5 20.0051C32.8195 20.0051 37.125 15.6926 37.125 10.3643C37.125 5.03605 32.8195 0.723511 27.5 0.723511C22.1805 0.723511 17.875 5.03605 17.875 10.3643C17.875 15.6926 22.1805 20.0051 27.5 20.0051ZM34.1 22.7596H33.3867C31.5992 23.6204 29.6141 24.1369 27.5 24.1369C25.3859 24.1369 23.4094 23.6204 21.6133 22.7596H20.9C15.4344 22.7596 11 27.2013 11 32.6759V35.155C11 37.436 12.8477 39.2867 15.125 39.2867H39.875C42.1523 39.2867 44 37.436 44 35.155V32.6759C44 27.2013 39.5656 22.7596 34.1 22.7596ZM14.8758 21.6062C13.8789 20.6163 12.5125 20.0051 11 20.0051H5.5C2.46641 20.0051 0 22.4756 0 25.5141V28.2687C0 29.7923 1.22891 31.0232 2.75 31.0232H8.41328C8.95469 26.9431 11.4125 23.5085 14.8758 21.6062Z" fill="#8F8F8F"/>
</svg>
